<?xml version="1.0" standalone="no"?>
<!DOCTYPE svg PUBLIC "-//W3C//DTD SVG 20010904//EN"
 "http://www.w3.org/TR/2001/REC-SVG-20010904/DTD/svg10.dtd">
<svg version="1.0" xmlns="http://www.w3.org/2000/svg"
 width="770.000000pt" height="400.000000pt" viewBox="0 0 770.000000 400.000000"
 preserveAspectRatio="xMidYMid meet">

<g transform="translate(0.000000,400.000000) scale(0.100000,-0.100000)"
fill="#000000" stroke="none">
<path d="M7 3993 c-4 -3 -7 -57 -7 -119 0 -106 1 -112 22 -117 12 -3 29 -2 39
4 10 5 27 9 39 9 12 0 18 4 15 10 -4 6 -10 8 -14 5 -5 -2 -6 7 -3 20 2 14 8
25 13 25 5 0 9 7 9 15 0 8 -4 15 -10 15 -5 0 -10 5 -10 11 0 5 5 7 10 4 6 -3
10 1 10 9 0 9 -6 13 -14 10 -20 -8 -35 43 -27 94 1 4 5 1 10 -7 8 -13 51 -24
51 -14 0 27 -91 43 -118 21 -12 -10 -14 -10 -8 0 8 13 4 16 -7 5z"/>
<path d="M4953 3990 c2 -8 12 -16 23 -17 13 -2 15 -1 4 4 -8 3 -19 11 -23 17
-6 7 -7 6 -4 -4z"/>
<path d="M4988 3990 c12 -5 22 -14 22 -20 0 -5 6 -10 14 -10 9 0 12 7 9 20 -4
15 -13 20 -37 19 -28 0 -29 -1 -8 -9z"/>
<path d="M5355 3984 c19 -14 19 -15 -3 -20 -16 -5 -22 -14 -22 -35 0 -16 2
-29 5 -29 17 0 122 32 161 49 26 12 54 21 64 21 10 0 33 7 51 15 32 13 24 14
-121 14 -140 0 -153 -1 -135 -15z m5 -48 c0 -3 -4 -8 -10 -11 -5 -3 -10 -1
-10 4 0 6 5 11 10 11 6 0 10 -2 10 -4z"/>
<path d="M5907 3993 c-4 -3 -7 -18 -7 -33 0 -15 -11 -36 -25 -50 -17 -16 -23
-30 -19 -42 8 -25 -11 -45 -64 -70 -24 -12 -46 -28 -49 -37 -3 -9 -19 -30 -35
-47 -26 -28 -28 -34 -17 -57 11 -25 14 -25 83 -20 39 3 79 10 88 14 9 5 29 9
45 9 47 -1 -62 -40 -126 -45 -65 -6 -77 -15 -60 -46 9 -17 9 -24 0 -27 -19 -6
-33 -40 -19 -48 7 -4 8 -3 4 4 -5 8 0 12 13 12 22 0 41 -27 41 -58 0 -13 9
-22 25 -26 26 -7 35 -36 12 -36 -14 0 -57 -41 -57 -54 0 -5 -11 -19 -25 -32
-16 -15 -20 -24 -12 -27 7 -3 4 -6 -5 -6 -10 -1 -18 -7 -18 -15 0 -23 18 -28
28 -10 9 15 10 15 16 -4 4 -12 5 -26 2 -31 -3 -5 1 -14 9 -21 8 -7 15 -17 15
-22 0 -5 7 -17 16 -26 11 -10 13 -17 5 -20 -6 -2 -11 -10 -11 -18 0 -13 29
-19 70 -16 64 6 192 7 195 2 5 -9 174 -16 305 -13 78 2 116 7 150 22 25 10
113 31 195 46 174 32 402 83 426 95 60 33 316 61 462 51 30 -2 9 -20 -31 -26
-72 -13 -102 -26 -102 -45 0 -16 7 -19 45 -18 25 0 49 -2 52 -6 9 -9 -24 -62
-36 -59 -6 2 -8 -4 -4 -13 5 -13 7 -13 14 -2 6 8 9 9 9 1 0 -6 2 -18 5 -25 7
-19 -49 -77 -86 -90 -16 -5 -29 -14 -29 -19 0 -6 -27 -23 -60 -38 -56 -27 -68
-28 -187 -29 -71 0 -148 -5 -173 -12 -31 -9 -157 -13 -415 -15 -267 -2 -370
-6 -373 -14 -8 -24 -69 -46 -145 -51 -58 -4 -77 -2 -77 8 0 9 -21 12 -82 11
-92 -2 -128 -11 -128 -33 0 -7 -13 -16 -30 -19 -44 -9 -36 -27 13 -28 23 0 49
-2 57 -4 63 -16 93 -17 85 -5 -6 10 -1 12 25 7 18 -4 41 -7 51 -7 25 0 24 -20
-1 -27 -12 -3 -19 -12 -18 -22 2 -11 -3 -15 -19 -13 -24 3 -103 -33 -103 -47
0 -5 34 -9 75 -10 61 -1 81 3 103 19 27 20 135 32 158 18 5 -4 27 -3 47 2 27
6 37 5 37 -5 0 -8 -9 -10 -26 -7 -19 3 -25 1 -20 -7 4 -6 1 -11 -9 -11 -9 0
-14 -4 -11 -9 3 -5 -1 -12 -10 -15 -27 -10 -44 -7 -44 9 0 8 5 15 10 15 6 0
10 5 10 10 0 18 -46 11 -65 -10 -14 -16 -20 -18 -27 -8 -6 10 -12 8 -24 -7 -8
-11 -19 -20 -24 -20 -4 0 -12 -3 -16 -7 -4 -5 -27 -8 -51 -8 -30 0 -45 -5 -49
-15 -4 -10 -13 -13 -25 -10 -11 4 -19 2 -19 -4 0 -6 -11 -11 -24 -11 -14 0
-27 -4 -30 -9 -8 -12 -76 -19 -82 -9 -8 13 -104 10 -104 -3 0 -8 15 -10 48 -6
l47 7 -33 -17 c-27 -13 -37 -14 -56 -3 -24 12 -46 7 -46 -10 0 -5 6 -7 14 -4
8 3 17 1 21 -5 3 -6 0 -11 -7 -12 -38 -2 -121 -27 -94 -28 11 -1 27 -8 37 -17
15 -14 27 -13 125 2 60 9 129 18 154 19 72 6 130 15 210 35 50 13 116 19 200
20 69 1 191 5 273 8 81 4 147 5 146 2 -1 -16 -130 -108 -177 -127 -43 -18 -79
-47 -163 -129 -59 -59 -114 -111 -123 -116 -12 -7 -23 7 -56 72 l-40 80 -80 0
-80 0 0 -120 c0 -82 -4 -120 -11 -120 -6 0 -46 16 -89 35 -43 19 -93 35 -111
35 -19 0 -52 11 -74 25 -22 13 -54 25 -71 25 -17 0 -48 7 -67 15 -54 22 -94
18 -151 -14 -61 -35 -156 -61 -223 -61 -47 0 -50 -2 -61 -34 -11 -28 -18 -34
-52 -40 -52 -8 -87 -42 -95 -91 -11 -67 -11 -67 -49 -44 -30 17 -39 33 -68
114 l-33 95 -67 0 -67 0 30 -82 c40 -107 43 -118 32 -118 -6 0 -10 -31 -9 -70
0 -38 -2 -71 -5 -74 -3 -3 -23 -8 -45 -12 -36 -5 -42 -4 -47 15 -3 13 -13 21
-26 21 -20 0 -21 4 -21 160 l0 161 -62 -3 -63 -3 -3 -127 c-3 -145 1 -139 -88
-117 -44 11 -44 12 -44 55 l0 44 -149 0 c-192 0 -192 0 -194 125 l-2 90 188
-2 187 -2 0 59 0 60 -250 0 -250 0 -1 -87 c-1 -75 -14 -174 -18 -135 0 6 -12
12 -25 12 -12 0 -45 12 -72 26 -79 42 -202 83 -269 90 -66 7 -231 -12 -241
-27 -3 -5 -13 -9 -22 -9 -10 0 -38 -11 -64 -25 -26 -14 -56 -25 -66 -25 -11 0
-25 -7 -32 -15 -7 -8 -21 -15 -31 -15 -11 0 -19 -7 -19 -17 -1 -35 -44 79
-157 415 l-116 344 -196 -196 -196 -196 28 -102 c15 -57 51 -191 81 -298 49
-180 76 -298 58 -259 -5 11 -17 16 -39 14 -37 -3 -174 -66 -220 -101 -63 -48
-333 -147 -333 -123 0 6 36 141 80 301 44 161 77 294 74 297 -4 3 -54 -44
-113 -104 -58 -61 -221 -224 -363 -363 -183 -180 -261 -250 -272 -246 -9 3
-16 12 -16 19 0 8 -9 16 -20 20 -16 5 -17 9 -7 20 6 7 16 10 21 7 5 -3 6 0 2
7 -6 9 -11 9 -22 0 -9 -7 -14 -8 -13 -3 4 21 -2 28 -11 14 -8 -13 -10 -13 -10
2 0 24 -115 63 -245 82 -133 20 -185 33 -185 47 0 6 -6 9 -12 6 -7 -2 -29 2
-48 9 -19 7 -100 18 -180 24 -100 8 -166 19 -212 35 -55 19 -89 24 -187 24
l-121 1 0 -890 0 -890 3850 0 3850 0 0 2000 0 2000 -406 0 -407 0 -35 -37
c-34 -37 -37 -38 -107 -38 -48 0 -79 5 -95 16 -38 24 -134 31 -231 18 -100
-14 -125 -9 -109 21 11 20 8 20 -193 20 -112 0 -207 -3 -210 -7z m-353 -1539
c4 -10 1 -14 -6 -12 -15 5 -23 28 -10 28 5 0 13 -7 16 -16z m-1471 -1161 c-7
-2 -21 -2 -30 0 -10 3 -4 5 12 5 17 0 24 -2 18 -5z m1 -49 c9 -3 16 -15 16
-25 0 -11 7 -19 16 -19 8 0 13 -4 9 -9 -3 -5 0 -13 6 -17 6 -3 14 -2 18 4 4 7
11 4 19 -8 11 -18 10 -20 -10 -20 -13 0 -30 -5 -38 -10 -11 -7 4 -10 50 -10
40 0 72 -6 84 -15 13 -10 24 -11 37 -4 17 9 18 7 7 -15 -8 -19 -17 -24 -32
-21 -12 3 -34 1 -51 -4 -22 -7 -25 -10 -10 -11 18 -1 18 -2 -3 -11 -13 -5 -28
-6 -33 -3 -16 9 -61 15 -56 7 3 -4 -7 -9 -21 -10 -75 -7 -154 -20 -124 -21 41
-2 42 -20 0 -24 -33 -3 -53 -28 -23 -28 14 0 15 -3 5 -15 -7 -8 -9 -15 -5 -15
5 0 -2 -9 -15 -20 -24 -21 -100 -29 -100 -10 0 6 -10 10 -22 11 -22 1 -22 1 2
9 14 4 37 11 53 14 15 4 27 11 27 17 0 6 -4 7 -10 4 -5 -3 -10 -1 -10 4 0 6 5
11 10 11 6 0 10 5 10 10 0 6 -10 10 -22 10 -49 0 -51 17 -3 31 40 12 43 15 23
20 -21 5 -21 6 10 13 22 5 32 13 32 27 0 17 8 19 63 20 34 1 49 4 32 6 -16 2
-40 6 -53 9 -21 4 -21 6 -7 20 8 9 13 20 10 24 -9 14 34 32 60 26 13 -3 27 -2
30 4 3 5 0 7 -8 4 -8 -3 -14 2 -14 11 0 8 7 15 14 15 8 0 11 5 8 10 -7 12 -3
12 19 4z m129 -41 c-7 -2 -21 -2 -30 0 -10 3 -4 5 12 5 17 0 24 -2 18 -5z
m127 -98 c-7 -9 -15 -13 -19 -10 -3 3 1 10 9 15 21 14 24 12 10 -5z m-42 -70
c-3 -3 -9 2 -12 12 -6 14 -5 15 5 6 7 -7 10 -15 7 -18z m-410 -161 l22 -6 -25
-24 c-14 -13 -32 -24 -38 -24 -7 0 -13 -9 -14 -20 -3 -32 -24 -46 -81 -54 -29
-4 -60 -9 -70 -13 -12 -4 -14 -3 -7 5 6 6 28 15 49 19 22 5 41 13 43 19 2 7
-6 10 -22 7 -36 -7 -135 7 -135 19 0 5 7 8 15 4 8 -3 21 2 30 10 9 9 36 16 69
17 30 1 53 4 51 5 -2 2 4 12 13 22 17 19 59 24 100 14z m-18 -80 c0 -8 -4 -12
-10 -9 -5 3 -10 10 -10 16 0 5 5 9 10 9 6 0 10 -7 10 -16z m-458 -5 c-35 -14
-17 -29 36 -29 l47 -1 -40 -18 -40 -19 43 -7 c55 -10 54 -22 -3 -27 l-45 -3
-14 43 c-18 50 -12 72 18 71 20 0 20 -1 -2 -10z m145 5 c-3 -3 -12 -4 -19 -1
-8 3 -5 6 6 6 11 1 17 -2 13 -5z m-17 -34 c0 -5 -10 -10 -22 -9 -22 0 -22 1
-3 9 11 5 21 9 23 9 1 1 2 -3 2 -9z m-765 -57 c4 -14 2 -23 -4 -23 -6 0 -11 6
-11 14 0 8 -3 23 -6 33 -5 12 -4 15 3 8 6 -5 14 -20 18 -32z m889 7 c16 0 15
-4 -10 -25 -34 -29 -42 -31 -50 -10 -4 8 -15 15 -25 15 -16 0 -18 -5 -13 -27
6 -23 5 -25 -12 -18 -10 5 -29 9 -40 9 -18 1 -20 4 -12 22 12 25 62 43 108 38
19 -2 44 -4 54 -4z m-387 -46 c-3 -4 -35 -7 -69 -6 l-63 0 65 -13 65 -12 -43
-8 c-38 -7 -69 -25 -43 -25 22 0 10 -29 -16 -38 -16 -6 -22 -11 -15 -11 22 -2
13 -31 -10 -31 -30 0 -14 -13 18 -14 28 -1 48 -26 21 -26 -9 0 -17 -5 -19 -11
-5 -14 -124 4 -173 26 -16 7 -38 15 -47 19 -13 4 -18 16 -18 40 0 33 -3 36
-52 55 -29 11 -47 20 -40 20 6 1 12 5 12 11 0 5 -7 7 -15 4 -20 -8 -65 4 -65
16 0 6 96 10 257 10 141 0 253 -3 250 -6z m-21 -83 c-3 -5 -15 -11 -26 -14
-17 -4 -19 -3 -9 9 12 15 44 20 35 5z m-21 -321 c3 -5 1 -10 -4 -10 -6 0 -11
5 -11 10 0 6 2 10 4 10 3 0 8 -4 11 -10z m35 -4 c0 -3 -4 -8 -10 -11 -5 -3
-10 -1 -10 4 0 6 5 11 10 11 6 0 10 -2 10 -4z"/>
<path d="M4045 1074 c-9 -9 -14 -18 -13 -20 7 -6 88 19 88 27 0 15 -58 10 -75
-7z"/>
<path d="M135 3910 c-3 -5 -1 -10 4 -10 6 0 11 5 11 10 0 6 -2 10 -4 10 -3 0
-8 -4 -11 -10z"/>
<path d="M130 3851 c0 -11 -4 -23 -10 -26 -5 -3 -10 -12 -10 -18 0 -7 4 -6 10
3 7 11 10 11 10 2 0 -7 3 -11 8 -8 4 2 16 -2 27 -11 19 -14 18 -14 -10 -9 -22
5 -25 4 -10 -2 15 -7 19 -17 17 -45 -3 -35 -2 -36 35 -42 21 -3 54 -10 74 -15
46 -13 58 -12 39 0 -12 8 -11 10 8 10 23 0 30 24 10 36 -6 4 -8 3 -5 -3 3 -5
0 -10 -8 -10 -10 0 -11 5 -4 18 7 14 5 19 -11 24 -20 6 -28 39 -11 49 5 3 7
15 4 26 -5 17 -14 20 -65 20 -35 0 -57 -4 -53 -10 3 -5 12 -7 20 -3 10 3 15
-1 15 -13 0 -9 -3 -14 -7 -11 -3 4 -12 2 -20 -5 -11 -8 -12 -7 -7 6 3 9 1 16
-5 16 -6 0 -11 -4 -11 -10 0 -5 -7 -7 -15 -4 -14 6 -13 8 1 19 9 6 14 17 10
23 -11 19 -26 14 -26 -7z"/>
<path d="M300 3790 c0 -5 5 -10 11 -10 5 0 7 5 4 10 -3 6 -8 10 -11 10 -2 0
-4 -4 -4 -10z"/>
<path d="M5663 3623 c-22 -8 -14 -23 12 -23 18 0 23 4 19 15 -6 16 -11 17 -31
8z"/>
<path d="M1914 3393 c-31 -74 -253 -743 -246 -743 4 0 183 176 397 390 l390
390 -262 0 -263 0 -16 -37z"/>
<path d="M2053 2962 c-232 -229 -429 -430 -436 -447 -14 -29 -117 -321 -117
-332 0 -2 234 226 520 508 359 354 520 520 519 534 -1 31 -43 148 -54 152 -5
1 -200 -185 -432 -415z"/>
<path d="M0 3119 c0 -41 3 -59 9 -50 5 8 16 11 26 8 10 -4 14 -3 9 4 -4 7 0 9
12 5 33 -10 43 5 28 44 -7 19 -13 31 -13 25 -1 -5 -5 -5 -9 2 -4 6 -20 15 -35
18 l-27 7 0 -63z"/>
<path d="M188 3153 c7 -3 16 -2 19 1 4 3 -2 6 -13 5 -11 0 -14 -3 -6 -6z"/>
<path d="M100 3119 c0 -6 9 -13 19 -16 20 -5 18 -29 -3 -46 -7 -6 -4 -7 6 -4
9 3 19 1 21 -6 2 -7 3 2 2 20 -2 32 -20 63 -36 63 -5 0 -9 -5 -9 -11z"/>
<path d="M7362 3081 c-11 -6 -10 -10 4 -15 20 -8 32 0 18 14 -5 5 -15 5 -22 1z"/>
<path d="M167 3074 c-9 -10 2 -24 18 -24 9 0 12 6 9 15 -6 16 -17 19 -27 9z"/>
<path d="M207 3043 c-12 -11 -8 -21 12 -26 24 -6 36 19 15 27 -19 7 -19 7 -27
-1z"/>
<path d="M2403 2868 c-172 -174 -181 -185 -176 -215 3 -18 8 -33 10 -33 9 0
302 291 345 342 33 40 38 50 28 68 -6 11 -14 20 -18 20 -4 0 -89 -82 -189
-182z"/>
<path d="M106 3032 c-3 -6 -1 -14 5 -17 14 -9 20 -2 10 14 -6 8 -11 9 -15 3z"/>
<path d="M180 3012 c0 -7 -12 -13 -27 -13 -26 -2 -26 -2 -4 -6 24 -5 50 11 38
24 -4 3 -7 1 -7 -5z"/>
<path d="M62 2976 c-9 -21 -8 -25 6 -29 9 -2 5 -4 -10 -3 -20 2 -25 -2 -23
-15 2 -10 -4 -24 -13 -31 -16 -12 -16 -11 -2 6 13 17 13 19 0 14 -9 -3 -15
-22 -17 -57 -2 -29 0 -51 4 -49 4 2 25 12 46 21 29 14 37 23 35 39 -2 17 6 23
44 35 35 12 47 21 51 39 2 13 0 24 -4 24 -5 0 -9 -9 -9 -21 0 -11 -4 -18 -9
-15 -5 3 -7 14 -4 24 3 14 -3 18 -32 20 -26 2 -35 -1 -29 -9 4 -7 2 -10 -7 -7
-8 3 -13 12 -11 22 4 23 -3 20 -16 -8z m75 -32 c-3 -3 -12 -4 -19 -1 -8 3 -5
6 6 6 11 1 17 -2 13 -5z"/>
<path d="M13 2955 c-3 -9 -3 -19 1 -22 3 -4 6 1 6 10 0 8 6 18 13 20 9 4 9 6
-1 6 -7 1 -15 -6 -19 -14z"/>
<path d="M5844 2884 c-16 -13 -16 -15 -2 -10 10 3 20 1 23 -4 7 -11 55 9 55
22 0 14 -55 9 -76 -8z"/>
<path d="M5760 2620 c-36 -8 -31 -11 17 -13 15 -1 28 4 31 11 4 13 4 13 -48 2z"/>
<path d="M1769 2240 c-287 -287 -371 -377 -392 -420 -15 -30 -27 -63 -27 -74
0 -13 121 102 370 350 320 319 373 377 395 427 15 32 25 63 22 70 -2 7 -168
-152 -368 -353z"/>
<path d="M6448 2483 c18 -2 45 -2 60 0 15 2 0 4 -33 4 -33 0 -45 -2 -27 -4z"/>
<path d="M6428 2433 c6 -2 18 -2 25 0 6 3 1 5 -13 5 -14 0 -19 -2 -12 -5z"/>
<path d="M5820 2420 c-30 -4 -49 -7 -42 -8 6 -1 12 -11 12 -22 0 -15 7 -20 29
-20 17 0 33 -5 36 -10 5 -8 12 -7 23 2 13 11 14 11 8 0 -6 -10 0 -12 27 -7 20
4 59 7 89 7 124 0 198 10 220 29 23 18 22 18 -99 19 -94 0 -123 -3 -123 -13 0
-7 -9 -13 -20 -13 -25 0 -26 14 -2 32 15 12 9 13 -43 12 -33 -1 -85 -4 -115
-8z"/>
<path d="M36 2412 c-2 -4 13 -8 35 -9 21 -1 39 3 39 8 0 11 -67 12 -74 1z"/>
<path d="M148 2403 c6 -2 18 -2 25 0 6 3 1 5 -13 5 -14 0 -19 -2 -12 -5z"/>
<path d="M4439 2360 c-9 -5 -22 -23 -29 -39 -29 -71 66 -135 119 -82 31 31 28
84 -5 110 -29 22 -59 26 -85 11z"/>
<path d="M6227 2273 c-38 -6 -29 -29 9 -24 16 1 32 5 37 8 8 5 -1 24 -11 22
-4 -1 -20 -4 -35 -6z"/>
<path d="M24 2141 c3 -5 -1 -11 -9 -15 -17 -6 -22 -86 -5 -86 6 0 10 5 10 10
0 6 11 15 25 20 25 10 47 47 38 63 -3 5 -14 7 -24 4 -11 -3 -19 -1 -19 4 0 5
-5 9 -11 9 -5 0 -8 -4 -5 -9z"/>
</g>
</svg>
