<?xml version="1.0" standalone="no"?>
<!DOCTYPE svg PUBLIC "-//W3C//DTD SVG 20010904//EN"
 "http://www.w3.org/TR/2001/REC-SVG-20010904/DTD/svg10.dtd">
<svg version="1.0" xmlns="http://www.w3.org/2000/svg"
 width="481.000000pt" height="89.000000pt" viewBox="0 0 481.000000 89.000000"
 preserveAspectRatio="xMidYMid meet">

<g transform="translate(0.000000,89.000000) scale(0.100000,-0.100000)"
fill="#000000" stroke="none">
<path d="M1664 800 c-17 -5 -39 -19 -49 -30 l-18 -20 -24 22 c-18 17 -39 23
-87 26 -75 5 -143 -14 -208 -59 -38 -26 -44 -27 -53 -12 -34 56 -51 66 -113
71 -74 5 -145 -17 -208 -64 l-44 -34 -33 36 c-40 47 -82 64 -152 64 -66 0
-140 -26 -194 -69 l-40 -32 -12 23 c-45 89 -198 73 -291 -30 -58 -64 -77 -175
-39 -223 17 -22 17 -27 5 -44 -8 -11 -14 -43 -14 -78 0 -55 2 -61 38 -94 20
-19 54 -51 75 -70 38 -35 39 -36 107 -31 71 5 134 33 174 77 24 27 49 20 92
-25 27 -29 38 -34 78 -34 63 0 86 24 86 88 0 53 16 76 60 86 21 6 38 -5 105
-69 91 -86 164 -127 241 -133 71 -6 100 3 135 41 l30 32 32 -19 c81 -49 114
-61 180 -64 87 -5 118 8 163 70 l36 50 29 -30 c33 -34 86 -47 142 -37 40 8 77
38 77 62 0 13 3 14 12 5 7 -7 19 -12 28 -12 8 0 28 -16 44 -36 l29 -37 74 7
c53 5 79 3 90 -5 26 -22 104 -17 139 10 28 20 36 22 65 13 19 -7 93 -10 169
-9 171 4 191 13 246 112 9 17 23 20 85 22 l74 3 27 -40 c15 -22 36 -40 46 -40
10 0 26 -13 35 -30 21 -35 52 -45 105 -35 20 4 71 6 113 5 82 -1 136 15 176
52 22 20 23 20 50 3 15 -10 32 -24 36 -31 4 -8 28 -25 53 -40 39 -23 52 -26
117 -22 41 2 89 12 112 23 22 10 47 22 56 26 11 5 29 -1 50 -18 30 -22 41 -24
101 -20 75 5 138 35 182 87 20 25 30 29 51 24 14 -3 31 -16 37 -28 23 -43 83
-64 151 -51 82 16 97 75 50 207 -32 89 -25 108 37 108 48 0 70 24 70 78 0 33
-7 49 -40 87 -22 25 -44 55 -50 65 -18 34 -95 71 -159 77 -88 8 -147 -4 -184
-37 -33 -28 -33 -28 -57 -9 -51 38 -169 15 -249 -49 l-24 -19 -35 39 c-51 56
-80 68 -164 68 -89 0 -153 -27 -213 -89 -21 -22 -44 -41 -51 -41 -7 0 -28 23
-48 50 -34 47 -38 50 -81 50 -26 0 -58 -6 -74 -14 -17 -9 -32 -11 -42 -5 -8 5
-32 9 -54 9 -92 0 -166 -43 -186 -108 l-11 -37 -70 2 c-53 1 -74 5 -88 20 -91
94 -110 110 -147 121 -97 29 -195 5 -249 -62 l-30 -36 -52 59 c-62 71 -98 85
-192 79 -47 -4 -82 -13 -117 -32 l-50 -27 -52 32 c-46 29 -62 33 -134 35 -45
2 -96 -1 -113 -6z m206 -48 c25 -12 53 -35 63 -51 l17 -30 33 30 c38 35 124
69 173 69 51 0 96 -22 131 -65 56 -68 67 -170 23 -210 -15 -14 -30 -16 -64
-12 -31 5 -47 2 -56 -7 -12 -16 -11 -17 55 -51 31 -15 43 -30 55 -62 13 -40
13 -44 -6 -70 -27 -35 -80 -43 -114 -15 -22 18 -22 21 -10 70 10 45 10 56 -4
77 -18 27 -52 49 -65 41 -5 -3 1 -37 12 -75 24 -81 19 -94 -44 -113 -33 -10
-42 -9 -58 6 -39 35 -91 192 -91 273 0 41 -1 42 -37 49 -77 15 -88 -26 -43
-158 19 -56 29 -100 25 -115 -14 -59 -166 -58 -181 1 -3 15 5 61 20 113 42
144 36 162 -60 160 -45 -1 -53 -4 -67 -29 -22 -38 -80 -66 -101 -48 -9 7 -15
25 -13 44 2 27 -2 31 -24 34 -17 2 -37 -6 -54 -21 -23 -19 -29 -34 -33 -80 -4
-52 -2 -58 27 -87 22 -23 38 -30 58 -28 25 3 28 7 28 38 0 52 11 63 57 57 84
-11 111 -82 68 -173 -29 -58 -62 -78 -130 -78 -99 0 -196 60 -243 149 -30 57
-29 174 1 231 56 108 226 185 312 141 13 -7 34 -26 45 -43 l21 -31 17 29 c38
66 163 86 257 40z m2630 0 c101 -49 107 -162 7 -145 -75 12 -83 -26 -36 -161
19 -55 28 -98 25 -113 -15 -59 -167 -58 -182 1 -3 15 5 61 20 113 14 48 26
100 26 115 0 34 -31 52 -75 44 -94 -18 -80 109 18 155 54 25 135 21 197 -9z
m-3750 0 c42 -21 78 -72 87 -124 l6 -39 17 39 c42 92 197 165 284 132 30 -11
56 -57 56 -99 0 -63 -16 -72 -93 -49 -35 11 -41 10 -54 -8 -7 -10 -13 -30 -11
-44 3 -22 7 -25 40 -23 30 2 38 -2 43 -18 9 -28 -9 -44 -48 -44 -27 0 -32 -4
-35 -25 -2 -14 4 -34 11 -44 13 -18 19 -19 54 -8 22 7 49 12 61 12 34 0 43
-55 18 -115 -30 -70 -142 -67 -252 7 -59 40 -93 102 -101 183 l-6 58 -15 -29
c-21 -39 -37 -50 -99 -64 -68 -15 -87 -40 -78 -104 7 -45 7 -46 -29 -62 -52
-25 -80 -9 -116 68 -17 35 -30 71 -30 81 0 27 -17 20 -23 -10 -20 -94 -159
-187 -249 -168 -57 13 -87 100 -50 145 l18 23 69 -23 c66 -22 69 -22 82 -4 17
23 17 65 -1 90 -14 18 -16 19 -64 2 -27 -10 -61 -18 -75 -18 -29 0 -57 33 -57
66 0 37 30 107 58 138 30 32 116 76 149 76 55 0 93 -40 93 -98 0 -50 -32 -63
-96 -40 -40 14 -64 -1 -64 -42 0 -47 22 -56 91 -35 49 15 65 16 80 7 17 -11
19 -9 19 14 0 15 5 45 12 67 32 106 199 179 298 129z m3048 4 c35 -18 65 -51
96 -106 14 -25 26 -40 26 -33 0 41 129 133 187 133 55 0 93 -40 93 -98 0 -50
-32 -63 -96 -40 -40 14 -64 -1 -64 -42 0 -47 22 -56 91 -35 70 21 89 15 102
-32 20 -68 -30 -161 -112 -210 -99 -59 -168 -53 -200 17 l-18 40 -19 -21 c-49
-54 -159 -95 -227 -84 -116 20 -215 216 -178 353 33 121 216 212 319 158z
m-1167 -27 c83 -28 133 -98 145 -202 8 -71 -17 -161 -56 -197 -39 -36 -113
-55 -152 -39 -33 13 -36 40 -13 96 21 49 19 72 -7 82 -26 9 -65 3 -71 -13 -2
-6 5 -39 15 -74 15 -48 17 -66 8 -77 -32 -38 -123 -21 -156 30 -15 24 -16 34
-6 83 17 80 76 239 99 264 24 28 91 58 129 58 17 0 46 -5 65 -11z m737 -16
c29 -41 68 -140 82 -207 25 -123 -9 -192 -108 -215 -46 -11 -56 -11 -77 3 -29
19 -31 42 -10 93 21 50 19 72 -9 84 -17 8 -29 8 -46 -1 -24 -13 -24 -25 1
-107 11 -37 11 -44 -5 -62 -21 -23 -60 -34 -87 -26 -11 4 -35 39 -59 88 -75
156 -76 284 -2 334 41 27 112 39 141 24 25 -14 26 -37 4 -109 -17 -52 -17 -55
2 -68 24 -18 36 -18 60 0 19 13 19 16 2 68 -24 76 -22 95 11 112 43 24 78 20
100 -11z m-401 -158 c30 -34 29 -67 -1 -102 -21 -24 -32 -28 -76 -28 -44 0
-55 4 -76 28 -28 33 -31 63 -8 95 22 32 51 43 99 37 27 -2 47 -12 62 -30z"/>
<path d="M2110 606 c-28 -35 11 -93 48 -70 35 22 22 84 -18 84 -10 0 -23 -7
-30 -14z"/>
<path d="M626 601 c-25 -28 -18 -85 11 -89 28 -4 56 36 51 75 -4 35 -36 42
-62 14z"/>
<path d="M3662 603 c-22 -9 -42 -60 -42 -108 0 -38 5 -52 29 -76 18 -17 40
-29 56 -29 16 0 38 12 56 29 25 25 29 37 29 84 0 44 -5 59 -25 81 -23 25 -67
34 -103 19z m87 -145 c-8 -14 -14 -18 -17 -10 -4 13 17 46 25 38 3 -2 -1 -15
-8 -28z"/>
<path d="M4021 485 c-18 -8 -44 -15 -57 -15 -13 0 -24 -3 -24 -7 0 -5 -3 -19
-7 -32 -4 -17 -3 -22 6 -17 6 4 41 -2 78 -15 64 -21 67 -21 80 -3 26 35 9 104
-25 104 -9 -1 -32 -7 -51 -15z"/>
<path d="M2501 604 c-27 -34 -27 -60 0 -75 35 -18 69 3 69 44 0 59 -35 74 -69
31z"/>
</g>
</svg>
