<?xml version="1.0" standalone="no"?>
<!DOCTYPE svg PUBLIC "-//W3C//DTD SVG 20010904//EN"
 "http://www.w3.org/TR/2001/REC-SVG-20010904/DTD/svg10.dtd">
<svg version="1.0" xmlns="http://www.w3.org/2000/svg"
 width="500.000000pt" height="500.000000pt" viewBox="0 0 500.000000 500.000000"
 preserveAspectRatio="xMidYMid meet">

<g transform="translate(0.000000,500.000000) scale(0.100000,-0.100000)"
fill="#000000" stroke="none">
<path d="M1533 3566 l67 -62 0 -137 0 -137 245 0 245 0 0 200 0 200 -312 0
-313 -1 68 -63z"/>
<path d="M2260 3625 c0 -3 -1 -92 -1 -197 l0 -193 241 -3 240 -2 0 200 0 200
-240 0 c-132 0 -240 -2 -240 -5z"/>
<path d="M2910 3430 l0 -200 240 0 240 0 0 134 0 134 72 66 72 66 -312 0 -312
0 0 -200z"/>
<path d="M433 3233 c-37 -116 -424 -1312 -431 -1330 -3 -10 63 -13 312 -13
l316 0 7 28 c3 15 21 83 38 152 l31 125 97 3 97 3 0 -156 0 -155 353 2 352 3
2 250 2 250 46 -1 c80 -1 80 -1 83 -269 l3 -235 500 0 499 0 1 303 c0 181 4
294 9 282 5 -11 36 -123 70 -250 34 -126 68 -254 76 -282 l15 -53 153 0 153 0
84 301 84 302 3 -302 2 -301 355 0 355 0 0 155 0 156 97 -3 97 -3 31 -125 c17
-69 35 -137 38 -152 l7 -28 316 0 c249 0 315 3 312 13 -7 18 -394 1214 -431
1330 l-31 97 -478 0 -478 0 0 -105 0 -105 -192 -2 -191 -3 -68 -244 c-37 -134
-70 -245 -72 -247 -2 -3 -36 107 -75 243 l-70 248 -326 3 -326 2 0 -97 0 -98
-28 55 c-31 61 -70 92 -146 116 -41 13 -112 18 -358 21 l-308 5 0 104 0 104
-478 0 -478 0 -31 -97z m463 -710 c-2 -2 -30 -3 -63 -1 l-59 3 60 230 61 230
3 -229 c1 -126 1 -231 -2 -233z m3254 292 c23 -88 50 -190 60 -227 l19 -68
-65 0 -64 0 0 232 c0 127 2 229 4 227 2 -2 23 -76 46 -164z m-2431 1 c10 -11
16 -34 16 -67 0 -62 -26 -89 -86 -89 l-39 0 0 91 0 92 46 -6 c25 -2 53 -12 63
-21z m541 -283 l-1 -188 -30 62 c-31 64 -58 90 -128 121 l-40 18 48 18 c57 20
116 75 131 122 7 19 13 34 16 34 2 0 4 -84 4 -187z"/>
<path d="M1600 1643 l0 -137 -67 -62 -68 -63 313 -1 312 0 0 200 0 200 -245 0
-245 0 0 -137z"/>
<path d="M2260 1775 c0 -3 -1 -92 -1 -197 l0 -193 241 -3 240 -2 0 200 0 200
-240 0 c-132 0 -240 -2 -240 -5z"/>
<path d="M2910 1580 l0 -200 312 0 312 0 -72 66 -72 66 0 134 0 134 -240 0
-240 0 0 -200z"/>
</g>
</svg>
