<?xml version="1.0" standalone="no"?>
<!DOCTYPE svg PUBLIC "-//W3C//DTD SVG 20010904//EN"
 "http://www.w3.org/TR/2001/REC-SVG-20010904/DTD/svg10.dtd">
<svg version="1.0" xmlns="http://www.w3.org/2000/svg"
 width="420.000000pt" height="420.000000pt" viewBox="0 0 420.000000 420.000000"
 preserveAspectRatio="xMidYMid meet">

<g transform="translate(0.000000,420.000000) scale(0.100000,-0.100000)"
fill="#000000" stroke="none">
<path d="M2016 2991 c43 -105 57 -180 58 -296 1 -122 -8 -185 -27 -185 -7 0
-71 -39 -142 -87 -462 -308 -820 -663 -1127 -1118 -117 -173 -116 -172 -119
-379 l-1 -141 343 0 344 0 6 175 c3 96 7 176 8 178 5 9 76 -4 223 -40 l170
-42 36 20 c51 27 62 55 62 156 0 78 3 89 25 117 14 16 41 40 60 51 27 17 35
28 35 51 0 24 -10 37 -65 76 -35 25 -62 49 -60 53 3 4 -3 7 -12 6 -10 0 -18 4
-18 11 0 6 -4 15 -9 20 -5 5 -6 3 -2 -4 10 -18 3 -16 -38 8 -39 23 -47 32 -18
22 15 -6 16 -5 2 11 -13 16 -12 20 8 36 16 13 49 20 130 25 l109 7 -1 83 c-1
69 2 86 19 105 17 19 26 21 70 16 64 -8 145 7 162 30 21 29 16 113 -11 170
-13 28 -52 95 -86 149 -90 141 -93 151 -75 227 17 74 20 240 4 324 -11 62 -64
210 -78 219 -5 2 2 -22 15 -54z"/>
<path d="M3225 2934 c-33 -19 -59 -39 -57 -46 2 -7 25 -65 52 -128 85 -202
136 -391 159 -590 14 -126 21 -386 9 -369 -6 9 -7 -8 -3 -51 4 -47 3 -61 -4
-50 -8 11 -9 2 -4 -34 4 -35 3 -47 -5 -42 -7 4 -9 -5 -6 -31 4 -29 3 -35 -5
-23 -9 12 -10 10 -6 -11 13 -53 -64 -296 -148 -469 -55 -112 -185 -316 -241
-375 l-34 -36 36 -34 c20 -19 47 -40 60 -46 28 -16 36 -7 153 165 248 366 363
753 362 1216 -1 337 -63 623 -193 880 -58 115 -54 112 -125 74z m62 -20 c33
-9 66 -123 46 -159 -8 -14 -12 -13 -36 5 -36 28 -57 71 -57 113 0 46 6 52 47
41z"/>
<path d="M2864 2736 c-18 -8 -35 -19 -39 -25 -3 -7 14 -60 39 -119 47 -113 93
-259 103 -329 3 -24 10 -40 15 -37 5 3 6 -13 2 -38 -4 -32 -3 -39 5 -28 8 11
10 -5 6 -60 -3 -50 -2 -67 4 -50 6 17 9 -11 9 -90 0 -63 -3 -104 -7 -90 -4 14
-7 -19 -7 -75 -1 -151 -58 -364 -144 -536 -45 -89 -148 -245 -194 -293 l-33
-35 51 -41 c27 -22 56 -39 64 -38 27 5 151 191 222 332 180 357 230 734 149
1129 -20 101 -87 322 -95 315 -2 -3 1 -19 6 -38 5 -19 7 -36 5 -39 -3 -2 -5 1
-5 8 0 9 -9 11 -28 6 -22 -4 -33 0 -54 22 -14 15 -31 38 -37 50 -14 27 -14 80
-1 88 12 7 13 25 3 25 -5 -1 -22 -7 -39 -14z"/>
<path d="M2590 2575 c0 -5 5 -17 10 -25 5 -8 10 -10 10 -5 0 6 -5 17 -10 25
-5 8 -10 11 -10 5z"/>
<path d="M2499 2532 c-13 -9 -24 -24 -24 -32 1 -22 58 -174 66 -178 5 -2 5
-10 2 -19 -5 -12 -3 -14 7 -8 10 6 11 2 6 -19 -5 -20 -4 -26 5 -20 9 5 10 -1
5 -20 -5 -20 -3 -26 5 -21 8 6 9 -2 4 -25 -5 -24 -4 -31 5 -25 9 6 11 -3 6
-36 -4 -29 -3 -37 3 -24 6 14 10 -10 15 -80 21 -280 -69 -585 -233 -793 l-40
-51 46 -41 46 -40 25 22 c35 32 113 151 154 233 88 174 127 330 135 541 6 166
-3 259 -43 413 -25 97 -47 150 -42 101 2 -18 -4 -29 -21 -37 -12 -7 -28 -10
-33 -7 -18 11 -58 108 -58 141 0 40 -10 46 -41 25z"/>
</g>
</svg>
