<?xml version="1.0" standalone="no"?>
<!DOCTYPE svg PUBLIC "-//W3C//DTD SVG 20010904//EN"
 "http://www.w3.org/TR/2001/REC-SVG-20010904/DTD/svg10.dtd">
<svg version="1.0" xmlns="http://www.w3.org/2000/svg"
 width="2000.000000pt" height="2000.000000pt" viewBox="0 0 2000.000000 2000.000000"
 preserveAspectRatio="xMidYMid meet">

<g transform="translate(0.000000,2000.000000) scale(0.100000,-0.100000)"
fill="#000000" stroke="none">
<path d="M2730 18423 c-324 -51 -554 -166 -771 -382 -192 -192 -309 -407 -366
-672 -17 -81 -18 -368 -18 -7369 0 -7007 1 -7288 18 -7370 56 -261 176 -482
366 -670 195 -194 407 -310 674 -367 78 -17 437 -18 7367 -18 6930 0 7289 1
7367 18 267 57 505 188 691 381 177 183 294 404 349 659 17 78 18 437 18 7367
0 6930 -1 7289 -18 7367 -57 267 -173 479 -367 674 -187 188 -387 299 -663
366 -69 17 -421 18 -7347 19 -4001 1 -7286 0 -7300 -3z m7380 -1783 c392 -58
765 -198 1085 -407 346 -226 642 -541 819 -873 l43 -81 -5 549 -5 549 129 6
c165 9 2201 9 2243 1 l31 -7 -3 -4831 c-3 -4489 -4 -4840 -20 -4956 -114 -837
-466 -1548 -1044 -2111 -169 -164 -321 -285 -543 -433 -704 -470 -1535 -743
-2455 -807 -218 -15 -758 -6 -950 15 -900 102 -1617 347 -2194 749 -255 177
-583 485 -779 730 -233 291 -462 692 -581 1018 -146 398 -230 910 -206 1249
l7 100 1103 0 1102 0 27 -137 c114 -579 269 -915 527 -1139 100 -87 261 -191
411 -264 224 -110 437 -172 708 -206 180 -22 510 -15 685 15 654 112 1205 449
1528 934 72 109 99 163 135 277 89 278 108 565 76 1120 -9 151 -17 379 -17
506 l-2 231 -34 -66 c-308 -603 -999 -956 -2104 -1076 -122 -13 -174 -14 -305
-5 -1009 69 -1876 405 -2497 967 -147 134 -384 378 -469 483 -242 302 -442
701 -566 1128 -231 798 -337 2108 -244 3012 65 634 191 1090 454 1645 195 413
487 808 818 1111 669 613 1503 972 2377 1024 218 13 557 4 715 -20z"/>
<path d="M9940 14549 c-333 -41 -627 -148 -885 -322 -118 -80 -332 -294 -407
-407 -223 -337 -380 -818 -445 -1365 -25 -213 -25 -751 1 -989 25 -240 61
-462 97 -595 150 -565 498 -1077 921 -1360 108 -72 259 -146 380 -185 165 -54
259 -65 558 -68 240 -1 275 0 367 20 402 87 752 327 1052 722 155 205 266 406
324 585 228 709 257 1468 86 2248 -60 273 -175 629 -256 792 -231 462 -683
790 -1249 906 -115 23 -421 34 -544 18z"/>
</g>
</svg>
