<?xml version="1.0" standalone="no"?>
<!DOCTYPE svg PUBLIC "-//W3C//DTD SVG 20010904//EN"
 "http://www.w3.org/TR/2001/REC-SVG-20010904/DTD/svg10.dtd">
<svg version="1.0" xmlns="http://www.w3.org/2000/svg"
 width="300.000000pt" height="300.000000pt" viewBox="0 0 300.000000 300.000000"
 preserveAspectRatio="xMidYMid meet">

<g transform="translate(0.000000,300.000000) scale(0.100000,-0.100000)"
fill="#000000" stroke="none">
<path d="M1441 2241 c-21 -11 -30 -21 -22 -25 22 -14 0 -26 -37 -21 -42 6 -76
-9 -53 -24 18 -12 0 -22 -36 -19 -16 1 -51 -9 -78 -22 -63 -30 -62 -28 -40
-44 18 -13 18 -14 -2 -20 -12 -4 -33 -4 -47 0 -14 3 -36 0 -53 -9 -15 -8 -41
-21 -58 -28 -23 -9 -26 -13 -12 -16 20 -5 22 -14 5 -31 -9 -9 -9 -12 0 -12 7
0 12 -4 12 -10 0 -5 -7 -10 -15 -10 -20 0 -19 -10 2 -25 15 -11 15 -13 -7 -20
-17 -5 -38 0 -75 20 -37 21 -58 26 -78 21 l-27 -6 0 -195 0 -195 -23 0 c-13 0
-28 -5 -35 -12 -9 -9 -12 -9 -12 0 0 8 -39 11 -134 11 l-134 0 -6 -29 c-4 -21
-11 -30 -25 -30 -11 0 -21 -6 -24 -12 -5 -16 -37 7 -37 27 0 28 -36 45 -96 45
l-60 0 -24 -87 c-13 -49 -26 -92 -30 -98 -3 -5 -14 -36 -24 -67 -21 -63 -25
-52 44 -135 33 -42 36 -43 92 -43 63 0 78 13 78 66 0 22 3 25 12 16 7 -7 19
-12 28 -12 9 0 31 -16 50 -35 30 -31 39 -35 87 -35 43 0 53 3 53 17 0 15 1 15
18 0 21 -19 112 -23 129 -6 8 8 13 8 17 0 4 -6 21 -11 37 -11 18 0 154 -62
354 -162 l325 -163 335 168 c184 92 344 167 355 167 12 0 23 7 26 15 4 8 10
15 15 15 5 0 9 -7 9 -15 0 -12 13 -15 58 -15 57 1 57 1 90 48 17 27 32 54 32
60 0 7 10 12 23 12 17 0 34 14 56 46 18 25 35 43 38 41 2 -3 16 -49 31 -103
l28 -99 57 -3 c55 -3 58 -2 107 44 27 26 50 55 50 65 0 9 -13 55 -29 100 l-29
82 24 32 c26 35 31 77 12 93 -9 6 -62 8 -151 3 -75 -3 -137 -3 -137 2 0 4 -59
7 -130 7 -105 0 -132 -3 -136 -15 -4 -10 -11 -11 -22 -5 -10 5 -25 11 -34 14
-16 5 -18 23 -18 194 l0 188 -42 21 c-32 15 -49 18 -67 11 -29 -10 -55 7 -31
22 21 13 -133 85 -177 82 -32 -3 -46 12 -20 21 19 7 -232 126 -254 120 -21 -6
-26 -23 -7 -23 9 0 9 -3 0 -12 -8 -8 -17 -8 -34 0 -21 10 -22 11 -3 12 18 0
18 2 -5 20 -23 17 -23 19 -7 26 15 5 16 9 5 15 -17 11 -17 11 -57 -10z m-21
-111 c12 -7 12 -10 -4 -16 -18 -7 -18 -8 -2 -20 17 -12 17 -13 -1 -23 -26 -13
-56 4 -33 19 13 8 13 11 1 19 -15 10 -7 31 12 31 7 0 19 -4 27 -10z m-90 -40
c18 -11 15 -14 -30 -33 l-35 -15 44 -19 c39 -17 42 -20 27 -33 -15 -12 -23
-11 -60 7 -30 15 -47 18 -60 11 -12 -7 -14 -13 -7 -22 16 -19 -49 -53 -74 -39
-16 9 -15 12 14 29 28 16 30 20 16 30 -14 10 -11 15 18 33 19 12 43 21 54 21
11 0 28 9 38 20 20 22 33 24 55 10z m199 -9 l35 -18 -24 -13 c-20 -11 -29 -10
-57 5 -35 19 -41 30 -20 38 20 9 31 7 66 -12z m319 -38 c15 -9 29 -19 32 -21
2 -1 -2 -7 -10 -13 -13 -7 -13 -10 -1 -18 17 -11 6 -31 -17 -31 -10 0 -34 11
-54 25 -20 14 -42 25 -47 25 -21 0 -10 15 22 32 41 21 42 21 75 1z m-741 -45
c-17 -9 -40 -17 -49 -18 -33 0 -28 19 9 38 29 15 41 17 55 8 16 -10 15 -12
-15 -28z m540 21 c29 -18 32 -24 20 -31 -17 -9 -97 11 -97 24 0 6 29 27 39 28
2 0 19 -10 38 -21z m312 -32 c14 -17 4 -27 -25 -27 -28 0 -42 19 -23 31 20 12
35 11 48 -4z m-496 -3 c8 -8 -30 -44 -48 -44 -8 0 -25 -5 -38 -11 -18 -8 -30
-8 -43 -1 -17 9 -12 14 36 36 55 25 82 31 93 20z m-163 -34 c24 -15 -3 -34
-37 -25 -27 6 -27 7 -9 21 23 16 26 17 46 4z m540 -31 c0 -19 -25 -20 -62 -3
-35 16 -38 19 -23 30 14 10 24 10 51 -4 19 -8 34 -19 34 -23z m-302 10 c59 2
68 -13 23 -34 -40 -17 -42 -17 -81 0 -22 10 -40 21 -40 25 0 14 12 18 38 13
15 -2 42 -4 60 -4z m177 -39 c-9 -14 -27 -12 -71 6 -36 15 -37 17 -20 30 16
11 24 10 58 -7 21 -11 36 -24 33 -29z m240 11 c3 -5 1 -12 -5 -16 -14 -9 -52
4 -45 16 8 12 42 12 50 0z m90 0 c7 -12 -28 -23 -49 -15 -9 3 -13 10 -10 15 7
12 51 12 59 0z m-630 -37 c-22 -17 -25 -17 -45 -4 -13 9 -13 12 4 25 14 11 24
12 39 3 20 -10 20 -11 2 -24z m-299 10 c36 -15 37 -17 19 -30 -11 -8 -26 -11
-35 -7 -8 4 -32 6 -52 5 -47 -2 -57 13 -21 32 36 19 43 19 89 0z m668 -10 c26
-10 18 -20 -24 -33 -52 -15 -71 -4 -33 20 31 21 34 22 57 13z m-513 -31 c40
-24 36 -37 -8 -28 -54 10 -80 25 -62 36 21 13 38 11 70 -8z m238 8 c12 -8 9
-11 -11 -16 -32 -8 -57 3 -37 16 18 11 30 11 48 0z m80 0 c11 -7 10 -11 -5
-19 -22 -12 -58 3 -49 19 8 11 36 12 54 0z m88 -47 c6 -17 -26 -25 -49 -13
-17 9 -18 13 -7 20 18 12 51 7 56 -7z m64 -7 c-5 -5 -18 -7 -28 -3 -14 6 -15
9 -4 16 19 11 46 1 32 -13z m94 13 c8 -13 -20 -24 -42 -16 -15 6 -15 8 -3 16
20 13 37 12 45 0z m-455 -20 c13 -9 13 -11 0 -20 -8 -5 -19 -10 -25 -10 -5 0
-17 5 -25 10 -13 9 -13 11 0 20 8 5 20 10 25 10 6 0 17 -5 25 -10z m169 1 c11
-7 10 -11 -5 -20 -17 -9 -17 -12 -4 -21 13 -9 13 -11 0 -20 -8 -5 -22 -7 -30
-4 -31 13 -45 14 -59 5 -12 -8 -12 -12 -2 -24 9 -12 9 -16 0 -19 -14 -5 -79
23 -79 33 0 3 17 14 38 24 20 9 53 26 72 36 40 21 50 22 69 10z m-290 -20 c11
-7 10 -11 -4 -19 -18 -10 -55 -5 -55 7 0 21 34 28 59 12z m78 -54 c-5 -15 -20
-18 -37 -7 -13 9 -13 11 -1 19 17 11 43 3 38 -12z m252 -27 c11 -6 10 -10 -7
-19 -16 -9 -29 -8 -56 6 -19 9 -33 20 -29 26 6 9 68 1 92 -13z m-94 -50 c3 -5
-3 -10 -15 -10 -12 0 -18 5 -15 10 3 6 10 10 15 10 5 0 12 -4 15 -10z m-1155
-99 c0 -5 -5 -22 -10 -36 -9 -24 -8 -26 11 -20 19 6 20 4 14 -24 -6 -29 -5
-31 22 -31 15 0 39 -3 53 -7 22 -6 23 -5 12 10 -17 20 0 57 27 57 24 0 35 -47
13 -59 -10 -6 -1 -10 32 -15 53 -8 52 -8 28 -106 l-17 -65 -49 -3 c-30 -2 -52
1 -56 8 -4 7 -1 33 6 58 17 57 17 62 0 62 -8 0 -20 -16 -26 -35 -10 -31 -16
-35 -46 -35 -32 0 -34 2 -34 35 0 42 -21 47 -39 9 -9 -21 -17 -25 -36 -21 -14
2 -25 0 -25 -4 0 -5 11 -9 25 -9 14 0 25 -5 25 -11 0 -7 -12 -10 -30 -7 -16 3
-30 1 -30 -4 0 -4 12 -8 26 -8 19 0 25 -5 22 -17 -2 -14 -15 -19 -56 -21 -28
-2 -52 1 -52 6 0 4 10 36 21 71 20 57 23 62 45 57 15 -4 24 -2 24 5 0 6 -9 13
-21 16 -12 4 -18 11 -15 20 4 8 9 26 12 39 5 18 13 24 33 24 25 1 25 1 5 13
-17 9 -20 17 -13 35 7 18 16 22 54 22 25 0 45 -4 45 -9z m245 -27 c-12 -67
-23 -86 -48 -82 -16 2 -23 11 -25 33 -2 17 -10 33 -17 37 -7 5 -11 17 -8 28 4
17 14 20 55 20 l50 0 -7 -36z m147 30 c9 -9 -7 -59 -19 -59 -6 0 -15 -3 -19
-7 -4 -5 1 -8 10 -8 14 0 17 -6 13 -22 -3 -13 -13 -63 -23 -111 -18 -93 -34
-114 -59 -81 -13 18 -14 18 -15 2 0 -22 -50 -26 -50 -4 0 13 56 258 65 284 4
12 86 18 97 6z m136 -24 c-4 -25 -1 -30 15 -30 16 0 19 -5 13 -31 -5 -25 -3
-30 12 -27 9 2 21 13 27 25 6 14 20 23 40 25 l30 4 -27 12 c-18 7 -28 19 -28
32 0 17 6 20 50 20 59 0 57 10 35 -175 -8 -66 -15 -123 -15 -127 0 -17 -30 -7
-31 10 -1 16 -2 16 -6 0 -3 -13 -15 -18 -39 -18 -36 0 -37 1 -28 49 6 26 11
31 36 31 20 0 31 -7 38 -22 10 -23 10 -23 7 2 -2 22 -8 26 -54 33 -50 8 -53
10 -53 38 0 23 -4 30 -17 27 -9 -2 -20 -14 -23 -28 -4 -19 -14 -27 -40 -31
-21 -4 -26 -7 -13 -8 27 -1 45 -33 38 -64 -6 -22 -12 -24 -67 -25 -50 -1 -59
2 -54 14 3 9 9 28 12 42 4 15 13 33 22 40 14 11 14 12 0 12 -14 0 -13 10 3 91
10 50 21 95 25 100 3 5 26 9 51 9 45 0 45 0 41 -30z m466 22 c3 -5 2 -18 -1
-30 -5 -20 -12 -22 -74 -22 -53 0 -69 -3 -69 -14 0 -8 -3 -21 -6 -30 -5 -13 1
-16 30 -16 27 0 36 -4 36 -17 1 -17 1 -17 11 0 6 10 22 17 40 17 27 0 30 -3
27 -27 -3 -30 -3 -30 -109 -32 -33 -1 -37 -4 -41 -31 l-5 -30 66 -1 c49 0 61
-3 46 -10 -16 -7 -13 -8 13 -4 31 4 33 3 30 -23 -2 -21 -9 -28 -31 -30 -21 -3
-29 2 -36 20 l-10 23 0 -22 c-1 -21 -6 -23 -49 -23 -57 0 -72 12 -72 57 0 30
-3 33 -31 33 l-32 0 7 46 c3 26 6 55 6 65 0 13 7 19 24 19 14 0 28 5 32 11 4
7 -2 9 -17 7 -21 -3 -24 2 -27 35 l-3 37 120 0 c66 0 122 -4 125 -8z m287 -19
c-7 -27 -11 -28 -74 -31 -59 -3 -67 -5 -67 -22 0 -11 -3 -19 -7 -19 -5 1 -21
0 -38 -1 -30 -3 -30 -3 5 -9 l35 -6 -2 -62 -1 -62 76 -3 77 -3 0 -30 c0 -25
-4 -30 -28 -33 -21 -3 -29 2 -36 20 l-10 23 0 -22 c-1 -20 -6 -23 -40 -23 -24
0 -41 5 -44 14 -6 15 -47 11 -47 -5 0 -5 -11 -9 -25 -9 -24 0 -25 2 -25 68 0
40 5 73 12 80 9 9 9 12 0 12 -8 0 -12 23 -12 75 l0 75 129 0 129 0 -7 -27z
m91 5 c0 -13 2 -41 2 -63 1 -37 3 -40 31 -42 20 -1 23 0 8 4 -20 4 -23 11 -23
48 0 24 -3 50 -6 59 -5 14 6 16 85 16 89 0 91 -1 96 -25 3 -14 7 -37 10 -51 5
-20 1 -27 -15 -31 -11 -3 -20 -9 -20 -13 0 -5 -8 -11 -17 -13 -10 -3 -2 -5 18
-6 l37 -1 9 -77 c6 -43 8 -81 6 -85 -9 -16 -53 -8 -54 10 -1 16 -2 16 -6 0 -8
-33 -39 -21 -51 21 -17 55 -15 61 16 62 20 1 22 2 7 6 -11 3 -24 9 -29 14 -20
19 -46 10 -46 -16 0 -21 -5 -25 -30 -25 -24 0 -32 -7 -46 -35 -9 -20 -18 -34
-19 -33 -1 2 -5 47 -9 101 -7 95 -7 97 16 106 l23 10 -22 0 c-20 1 -23 6 -23
41 0 36 3 40 25 40 19 0 25 -6 27 -22z m492 -70 c9 -51 19 -103 21 -115 5 -21
1 -23 -32 -24 l-38 -1 37 -10 c23 -6 38 -17 41 -29 7 -25 -8 -31 -64 -27 -44
3 -44 3 -47 46 -3 37 -6 42 -27 42 -21 0 -24 -4 -19 -27 12 -62 11 -66 -26
-68 -67 -4 -80 3 -80 45 0 36 -13 150 -26 228 l-5 32 125 0 124 0 16 -92z
m176 75 c28 -24 25 -33 -10 -33 -34 0 -34 1 -20 -34 9 -24 14 -26 79 -26 57 0
70 -3 74 -17 2 -10 8 -26 12 -35 6 -16 1 -18 -39 -18 -43 0 -46 2 -47 28 0 27
0 27 -10 4 -5 -13 -18 -26 -30 -29 -11 -3 -18 -11 -15 -18 2 -7 7 -33 11 -58
l7 -45 -49 -4 c-26 -3 -52 -1 -57 3 -10 9 -55 222 -56 267 l0 32 65 0 c47 0
70 -5 85 -17z m100 -2 c15 -29 13 -31 -30 -31 -23 0 -40 5 -40 11 0 7 -8 18
-17 25 -16 12 -12 13 29 14 37 0 50 -4 58 -19z m285 -6 c0 -30 -44 -33 -68 -3
-17 20 -18 21 -14 3 3 -11 26 -77 51 -146 24 -70 42 -130 39 -133 -12 -12 -91
-6 -102 7 -6 8 -14 28 -17 45 -6 29 -4 31 27 35 l34 4 -37 1 -38 2 -27 91
c-15 50 -29 86 -31 80 -6 -17 -59 -13 -66 5 -13 33 -5 35 122 32 119 -3 127
-4 127 -23z m-1645 -229 c0 -40 -11 -56 -36 -56 -21 0 -24 5 -24 33 0 40 6 47
37 47 18 0 23 -6 23 -24z m658 -18 c-3 -28 -7 -34 -31 -36 -40 -5 -64 5 -49
20 7 7 12 20 12 30 0 14 8 18 36 18 34 0 35 -1 32 -32z"/>
<path d="M1764 1474 c3 -9 6 -22 6 -30 0 -8 7 -14 15 -14 10 0 15 10 15 30 0
24 -4 30 -21 30 -15 0 -19 -4 -15 -16z"/>
<path d="M2010 1475 c0 -8 9 -15 20 -15 22 0 26 -10 10 -26 -10 -10 -2 -54 11
-54 4 0 11 5 14 10 3 6 15 10 26 10 10 0 19 -4 19 -10 0 -18 18 -10 23 10 4
14 -1 25 -14 33 -25 15 -24 27 1 27 11 0 20 7 20 15 0 8 -9 15 -20 15 -11 0
-23 -7 -26 -15 -4 -8 -12 -15 -19 -15 -7 0 -15 7 -19 15 -3 8 -15 15 -26 15
-11 0 -20 -7 -20 -15z"/>
<path d="M915 1981 c-3 -5 0 -13 5 -16 16 -10 62 4 55 15 -8 13 -52 13 -60 1z"/>
</g>
</svg>
