<?xml version="1.0" standalone="no"?>
<!DOCTYPE svg PUBLIC "-//W3C//DTD SVG 20010904//EN"
 "http://www.w3.org/TR/2001/REC-SVG-20010904/DTD/svg10.dtd">
<svg version="1.0" xmlns="http://www.w3.org/2000/svg"
 width="1024.000000pt" height="1024.000000pt" viewBox="0 0 1024.000000 1024.000000"
 preserveAspectRatio="xMidYMid meet">

<g transform="translate(0.000000,1024.000000) scale(0.100000,-0.100000)"
fill="#000000" stroke="none">
<path d="M3412 6245 c-108 -30 -177 -86 -224 -183 -30 -60 -33 -75 -33 -157 0
-76 4 -98 26 -145 32 -69 92 -131 161 -167 48 -25 62 -28 158 -28 94 0 110 3
155 27 139 73 214 220 190 374 l-7 48 -24 -31 c-26 -33 -88 -63 -132 -63 -39
1 -105 33 -130 65 -52 66 -48 154 10 220 17 20 29 38 26 40 -13 14 -128 13
-176 0z"/>
<path d="M6700 6247 c-95 -28 -163 -77 -216 -157 -34 -52 -57 -153 -50 -220
14 -124 109 -247 224 -290 79 -30 205 -26 277 10 64 31 134 101 165 164 25 52
39 179 26 231 l-7 26 -24 -29 c-52 -62 -127 -77 -202 -41 -105 51 -125 209
-35 279 14 11 23 23 20 25 -13 13 -136 14 -178 2z"/>
<path d="M1395 6206 c-123 -31 -231 -119 -288 -235 l-32 -66 0 -760 0 -760 32
-66 c37 -76 111 -154 181 -192 87 -48 148 -57 364 -57 l198 0 0 1075 0 1075
-202 -1 c-125 0 -222 -5 -253 -13z"/>
<path d="M8430 5145 l0 -1075 203 0 c215 0 264 7 353 51 108 54 199 180 224
308 6 33 10 307 10 716 0 409 -4 683 -10 716 -23 121 -101 236 -201 296 -89
53 -148 63 -376 63 l-203 0 0 -1075z"/>
<path d="M3680 2045 l0 -135 1460 0 1460 0 0 135 0 135 -1460 0 -1460 0 0
-135z"/>
</g>
</svg>
